<svg xmlns="http://www.w3.org/2000/svg" width="400" height="400" viewBox="0 0 400 400">
  <rect width="400" height="400" fill="none" />
  <circle cx="200" cy="200" r="150" fill="#f0f9ff" />
  <rect x="120" y="100" width="160" height="200" rx="8" fill="white" stroke="#3b82f6" stroke-width="4" />
  <rect x="140" y="120" width="120" height="10" rx="2" fill="#3b82f6" opacity="0.3" />
  <rect x="140" y="140" width="80" height="10" rx="2" fill="#3b82f6" opacity="0.3" />
  <rect x="140" y="170" width="120" height="40" rx="4" fill="#3b82f6" opacity="0.1" />
  <rect x="150" y="180" width="60" height="8" rx="2" fill="#3b82f6" opacity="0.3" />
  <rect x="150" y="195" width="40" height="8" rx="2" fill="#3b82f6" opacity="0.3" />
  <rect x="140" y="220" width="120" height="40" rx="4" fill="#3b82f6" opacity="0.1" />
  <rect x="150" y="230" width="60" height="8" rx="2" fill="#3b82f6" opacity="0.3" />
  <rect x="150" y="245" width="40" height="8" rx="2" fill="#3b82f6" opacity="0.3" />
  <rect x="140" y="270" width="50" height="20" rx="4" fill="#3b82f6" />
  <circle cx="300" cy="120" r="20" fill="#3b82f6" opacity="0.2" />
  <circle cx="300" cy="120" r="10" fill="#3b82f6" />
  <circle cx="100" cy="280" r="25" fill="#3b82f6" opacity="0.2" />
  <circle cx="100" cy="280" r="12" fill="#3b82f6" />
  <circle cx="320" cy="250" r="15" fill="#3b82f6" opacity="0.2" />
  <circle cx="320" cy="250" r="7" fill="#3b82f6" />
</svg>

